<?xml version="1.0" encoding="UTF-8" standalone="no"?>
<!-- Created with Inkscape (http://www.inkscape.org/) -->

<svg
   xmlns:dc="http://purl.org/dc/elements/1.1/"
   xmlns:cc="http://creativecommons.org/ns#"
   xmlns:rdf="http://www.w3.org/1999/02/22-rdf-syntax-ns#"
   xmlns:svg="http://www.w3.org/2000/svg"
   xmlns="http://www.w3.org/2000/svg"
   version="1.0"
   width="32"
   height="32"
   viewBox="0 0 9.1418669 9.1417597"
   id="Layer_1"
   xml:space="preserve"><metadata
   id="metadata8"><rdf:RDF><cc:Work
       rdf:about=""><dc:format>image/svg+xml</dc:format><dc:type
         rdf:resource="http://purl.org/dc/dcmitype/StillImage" /><dc:title></dc:title></cc:Work></rdf:RDF></metadata><defs
   id="defs8" /><path
   d="m 8.7847628,3.7636018 c 0,1.8812868 -1.8865912,3.441334 -4.2138297,3.441334 -0.7163142,0 -0.1422638,-0.00566 -0.8488741,-0.00566 C 3.2630782,7.7773574 2.5377441,8.2850074 2.1172506,8.5631904 1.6879024,8.8472326 1.0411545,8.7770263 1.0411545,8.7770263 c 0,0 0.8823537,-0.8757065 1.1842761,-2.010433 C 2.2797893,6.5028071 1.6867993,6.3024449 1.4608258,6.0617981 0.77553984,5.4559767 0.35710419,4.6492738 0.35710419,3.7635892 c 0,-1.8812868 1.88659151,-3.40653858 4.21382891,-3.40653222 2.3272385,6.37e-6 4.2138297,1.52525822 4.2138297,3.40654482 z"
   id="path5"
   style="fill:#ffffff;stroke:#000000;stroke-width:0.71420836;stroke-miterlimit:4;stroke-dasharray:none" />

<path
   d="m 3.7104132,4.6466129 c -0.0039,0.4361222 0.00374,0.8727904 -0.00757,1.308563 C 3.6811763,6.1843666 3.4378841,6.3345376 3.2215305,6.269889 2.9519384,6.2091931 2.8283597,5.9007353 2.8623461,5.6472344 2.8717316,4.3614804 2.9405142,3.0768693 2.946603,1.7910968 2.9644648,1.4735126 3.3897808,1.3155522 3.6226268,1.5201813 3.8371399,1.6875358 3.7552781,1.9807596 3.7601554,2.2134308 3.7455626,2.5654099 3.716801,2.9166606 3.7045001,3.26875 4.2425809,2.7236628 4.7500224,2.1490968 5.2734126,1.5901277 5.4977808,1.3524162 5.946928,1.5171601 5.9699451,1.8406692 5.9605185,2.0685127 5.7624545,2.2342244 5.6393573,2.4107989 5.182324,2.9530742 4.6823858,3.4575813 4.1715806,3.948811 4.6293456,4.371049 5.0639,4.8248435 5.5757761,5.1829006 5.7635788,5.3069627 6.0742477,5.3182216 6.129291,5.5834411 6.1990418,5.8382788 5.9758956,6.1363096 5.7022828,6.0873652 5.2678931,6.0309381 4.9107053,5.742106 4.5831829,5.4712189 4.2852039,5.2039916 3.998621,4.924283 3.7104132,4.6466129 z"
   id="path3813" /></svg>